<svg xmlns="http://www.w3.org/2000/svg" viewBox="0 0 128 128" role="img" aria-labelledby="title desc">
  <title id="title">Vietnam Airlines</title>
  <desc id="desc">Biểu trưng hoa sen cách điệu màu vàng</desc>
  <defs>
    <linearGradient id="vnGold" x1="0" y1="0" x2="1" y2="1">
      <stop offset="0" stop-color="#ffd65a"/>
      <stop offset="0.55" stop-color="#f6b919"/>
      <stop offset="1" stop-color="#d89000"/>
    </linearGradient>
    <linearGradient id="vnBlue" x1="0" y1="0" x2="1" y2="1">
      <stop offset="0" stop-color="#0b6f78"/>
      <stop offset="1" stop-color="#004b5b"/>
    </linearGradient>
</defs>
  <circle cx="64" cy="64" r="55" fill="url(#vnBlue)"/>
  <g fill="url(#vnGold)">
    <path d="M64 25c10 11 15 24 14 38-6-6-11-13-14-22-3 9-8 16-14 22-1-14 4-27 14-38Z"/>
    <path d="M33 44c14 3 25 10 33 22-9-2-18-1-27 2 6 7 10 15 12 24-13-5-23-14-29-27 0-8 4-15 11-21Z"/>
    <path d="M95 44c-14 3-25 10-33 22 9-2 18-1 27 2-6 7-10 15-12 24 13-5 23-14 29-27 0-8-4-15-11-21Z"/>
    <path d="M43 89c14-2 26 0 36 7-8 6-18 9-30 9-9-4-15-9-19-16 4 1 8 1 13 0Z"/>
    <path d="M85 89c-14-2-26 0-36 7 8 6 18 9 30 9 9-4 15-9 19-16-4 1-8 1-13 0Z"/>
    <ellipse cx="64" cy="76" rx="10" ry="18"/>
  </g>
</svg>
